<svg id="Layer_2" data-name="Layer 2" xmlns="http://www.w3.org/2000/svg" viewBox="0 0 55.57 77.32"><defs><style>.cls-1{fill:#f5f6f6;stroke:#194172;stroke-miterlimit:10;}.cls-2{fill:#2b2e31;}.cls-3{fill:#e0eaec;}.cls-4{fill:#6eabdd;}.cls-5{fill:#e03836;}</style></defs><title>calculator</title><rect class="cls-1" x="0.5" y="0.5" width="54.57" height="76.32" rx="5.66"/><rect class="cls-2" x="4.86" y="5.54" width="45.86" height="12.61" rx="2.41"/><rect class="cls-3" x="4.86" y="64.17" width="10.62" height="8.71" rx="1.58"/><rect class="cls-3" x="16.6" y="64.17" width="10.62" height="8.71" rx="1.58"/><rect class="cls-3" x="28.35" y="64.17" width="10.62" height="8.71" rx="1.58"/><rect class="cls-4" x="40.09" y="64.17" width="10.62" height="8.71" rx="1.58"/><rect class="cls-3" x="4.86" y="54.08" width="10.62" height="8.71" rx="1.58"/><rect class="cls-3" x="16.6" y="54.08" width="10.62" height="8.71" rx="1.58"/><rect class="cls-3" x="28.35" y="54.08" width="10.62" height="8.71" rx="1.58"/><rect class="cls-3" x="40.09" y="54.08" width="10.62" height="8.71" rx="1.58"/><rect class="cls-3" x="4.86" y="43.99" width="10.62" height="8.71" rx="1.58"/><rect class="cls-3" x="16.6" y="43.99" width="10.62" height="8.71" rx="1.58"/><rect class="cls-3" x="28.35" y="43.99" width="10.62" height="8.71" rx="1.58"/><rect class="cls-3" x="40.09" y="43.99" width="10.62" height="8.71" rx="1.58"/><rect class="cls-3" x="4.86" y="33.9" width="10.62" height="8.71" rx="1.58"/><rect class="cls-3" x="16.6" y="33.9" width="10.62" height="8.71" rx="1.58"/><rect class="cls-3" x="28.35" y="33.9" width="10.62" height="8.71" rx="1.58"/><rect class="cls-3" x="40.09" y="33.9" width="10.62" height="8.71" rx="1.58"/><rect class="cls-5" x="4.86" y="23.81" width="10.62" height="8.71" rx="1.58"/><rect class="cls-3" x="16.6" y="23.81" width="10.62" height="8.71" rx="1.58"/><rect class="cls-3" x="28.35" y="23.81" width="10.62" height="8.71" rx="1.58"/><rect class="cls-3" x="40.09" y="23.81" width="10.62" height="8.71" rx="1.58"/></svg>