<?xml version="1.0"?>
<svg xmlns="http://www.w3.org/2000/svg" width="512" height="512" viewBox="0 0 128 128"><g><path d="M64,119.18H11.335a9.571,9.571,0,0,1-8.289-14.356L29.379,59.215l26.333-45.61a9.57,9.57,0,0,1,16.576,0l26.333,45.61,26.332,45.609a9.57,9.57,0,0,1-8.288,14.356Z" fill="#fd4e26"/><path d="M11.335,111.18a1.571,1.571,0,0,1-1.36-2.356L62.64,17.605a1.57,1.57,0,0,1,2.72,0l52.665,91.219a1.571,1.571,0,0,1-1.36,2.356Z" fill="#f5f5f5"/><g><path d="M72.694,94.819a1.742,1.742,0,0,1-1.033-.338L64,88.873l-7.661,5.608a1.75,1.75,0,0,1-2.773-1.6l1.026-9.439-8.687-3.83a1.75,1.75,0,0,1,0-3.2l8.687-3.83-1.026-9.437a1.75,1.75,0,0,1,2.773-1.6L64,67.147l7.661-5.608a1.75,1.75,0,0,1,2.773,1.6l-1.026,9.437,8.687,3.83a1.75,1.75,0,0,1,0,3.2l-8.687,3.83,1.026,9.439a1.749,1.749,0,0,1-1.74,1.939ZM64,84.954a1.744,1.744,0,0,1,1.034.338l5.491,4.021-.735-6.766a1.751,1.751,0,0,1,1.034-1.791l6.227-2.746-6.227-2.745a1.752,1.752,0,0,1-1.034-1.791l.736-6.767-5.492,4.021a1.75,1.75,0,0,1-2.068,0l-5.492-4.021.736,6.767a1.752,1.752,0,0,1-1.034,1.791L50.949,78.01l6.227,2.746a1.751,1.751,0,0,1,1.034,1.791l-.735,6.766,5.491-4.021A1.744,1.744,0,0,1,64,84.954Z" fill="#159ce4"/><path d="M41.838,70.815l4.626-.907,14.036,8.1-14.036,8.1-4.626-.908a1.786,1.786,0,0,0-.339-.033,1.75,1.75,0,0,0-.335,3.467l3.3.648-1.09,3.185a1.75,1.75,0,1,0,3.311,1.132l1.527-4.46,14.035-8.1V97.248l-3.1,3.554a1.75,1.75,0,0,0,2.638,2.3L64,100.566l2.212,2.537a1.75,1.75,0,0,0,2.638-2.3l-3.1-3.554V81.042l14.035,8.1,1.527,4.46a1.75,1.75,0,1,0,3.311-1.132l-1.09-3.185,3.3-.648a1.75,1.75,0,0,0-.335-3.467,1.786,1.786,0,0,0-.339.033l-4.626.908L67.5,78.011l14.036-8.1,4.626.907a1.749,1.749,0,1,0,.674-3.433l-3.3-.649,1.09-3.184a1.75,1.75,0,1,0-3.311-1.133l-1.527,4.461L65.75,74.98V58.774l3.1-3.553a1.75,1.75,0,0,0-2.638-2.3L64,55.456,61.788,52.92a1.75,1.75,0,0,0-2.638,2.3l3.1,3.553V74.98l-14.035-8.1-1.527-4.461a1.75,1.75,0,1,0-3.311,1.133l1.09,3.184-3.3.649a1.749,1.749,0,1,0,.674,3.433Z" fill="#81c8ee"/></g></g></svg>
