<?xml version="1.0" encoding="utf-8"?>
<!-- Generator: Adobe Illustrator 23.0.0, SVG Export Plug-In . SVG Version: 6.00 Build 0)  -->
<svg version="1.1" id="Capa_1" xmlns="http://www.w3.org/2000/svg" xmlns:xlink="http://www.w3.org/1999/xlink" x="0px" y="0px"
	 viewBox="0 0 459.5 459.5" style="enable-background:new 0 0 459.5 459.5;" xml:space="preserve">
<style type="text/css">
	.st0{fill:#0679BF;}
</style>
<g>
	<g>
		<path class="st0" d="M451.5,221.8h-35.2c-4.2-44.5-43.7-77.1-88.1-72.9c-38.6,3.7-69.2,34.3-72.9,72.9h-51
			c-4.2-44.5-43.7-77.1-88.1-72.9c-38.6,3.7-69.2,34.3-72.9,72.9H8c-4.4,0-8,3.6-8,8s3.6,8,8,8h35.2c4.2,44.5,43.7,77.1,88.1,72.9
			c38.6-3.7,69.2-34.3,72.9-72.9h51.1c4.2,44.5,43.7,77.1,88.1,72.9c38.6-3.7,69.2-34.3,72.9-72.9h35.1c4.4,0,8-3.6,8-8
			S455.9,221.8,451.5,221.8z M123.7,294.7h-0.2c-35.9-0.1-64.9-29.2-64.8-65.1c0.1-35.9,29.2-64.9,65.1-64.8
			c35.8,0.1,64.8,29.1,64.8,65C188.6,265.6,159.6,294.7,123.7,294.7z M335.8,294.7h-0.2c-35.9-0.1-64.9-29.2-64.8-65.1
			c0.1-35.9,29.2-64.9,65.1-64.8c35.8,0.1,64.8,29.1,64.8,65C400.8,265.6,371.7,294.7,335.8,294.7z"/>
	</g>
</g>
<g>
	<g>
		<path class="st0" d="M132.6,179L132.6,179c-4.4,0-8,3.6-8,8s3.6,8,8,8c14.5,0,26.3,11.8,26.3,26.3c0,4.4,3.6,8,8,8s8-3.6,8-8
			C174.9,197.9,155.9,179,132.6,179z"/>
	</g>
</g>
<g>
	<g>
		<path class="st0" d="M344.2,179L344.2,179c-4.4,0-8,3.6-8,8s3.6,8,8,8c14.5,0,26.3,11.8,26.3,26.3c0,4.4,3.6,8,8,8s8-3.6,8-8
			C386.6,197.9,367.6,179,344.2,179z"/>
	</g>
</g>
</svg>
