<?xml version="1.0" encoding="utf-8"?>
<!-- Generator: Adobe Illustrator 23.0.0, SVG Export Plug-In . SVG Version: 6.00 Build 0)  -->
<svg version="1.1" id="Layer_1" xmlns="http://www.w3.org/2000/svg" xmlns:xlink="http://www.w3.org/1999/xlink" x="0px" y="0px"
	 viewBox="0 0 512 512" style="enable-background:new 0 0 512 512;" xml:space="preserve">
<style type="text/css">
	.st0{fill:#905DA7;}
</style>
<path class="st0" d="M413.6,197.4c-1.9-3.3-5.4-5.4-9.3-5.4H264.6L288,13c0.6-5.9-3.7-11.2-9.5-11.8c-4-0.4-7.9,1.4-10.1,4.8
	L98.4,303.7c-3.1,5-1.5,11.6,3.5,14.7c1.7,1,3.6,1.6,5.6,1.6h137.6l-18.6,179.3c-0.5,5.9,4,11.1,9.9,11.5c4,0.3,7.8-1.6,9.9-5
	l167.1-297.7C415.5,204.9,415.5,200.7,413.6,197.4L413.6,197.4z"/>
</svg>
