<svg xmlns="http://www.w3.org/2000/svg" id="Logo_blue" width="121.411" height="53.208" viewBox="0 0 121.411 53.208">
    <defs>
        <style>
            .cls-1{fill:#fff;fill-rule:evenodd}
        </style>
    </defs>
    <g id="Logo-2-Copy">
        <path id="S" d="M10.409 55.259a31.992 31.992 0 0 1-9.3-1.311A21.523 21.523 0 0 1-6.26 50.2l2.667-5.6a22.874 22.874 0 0 0 6.576 3.426 24.33 24.33 0 0 0 7.487 1.1 13.02 13.02 0 0 0 6.94-1.549 4.873 4.873 0 0 0 2.455-4.349 4.011 4.011 0 0 0-2.273-3.663 28.869 28.869 0 0 0-7.487-2.413q-8.121-1.73-11.818-4.471a9.318 9.318 0 0 1-3.7-7.983 11.285 11.285 0 0 1 2.063-6.671A13.7 13.7 0 0 1 2.5 13.44a21.553 21.553 0 0 1 8.759-1.668 27.569 27.569 0 0 1 8.637 1.34 18.134 18.134 0 0 1 6.7 3.724l-2.606 5.6a20.115 20.115 0 0 0-12.73-4.528 11.34 11.34 0 0 0-6.607 1.7 5.349 5.349 0 0 0-2.425 4.617 4.2 4.2 0 0 0 2.152 3.812 25.812 25.812 0 0 0 7.365 2.443 53.189 53.189 0 0 1 8.789 2.711 13.049 13.049 0 0 1 5.213 3.753 8.958 8.958 0 0 1 1.818 5.748 10.974 10.974 0 0 1-2.065 6.64 13.137 13.137 0 0 1-5.94 4.378 24.615 24.615 0 0 1-9.151 1.549z" class="cls-1" transform="translate(6.26 -11.772)"/>
        <path id="M" d="M109.965 12.472h6.055v42.267h-6.767V28.5l-11.22 26.239h-5.046L81.708 28.8v25.939H74.94V19.375l1.9-2.163L83.6 18.4l11.938 27.14z" class="cls-1" transform="translate(5.132 -11.782)"/>
        <g id="Group" transform="translate(36.584)">
            <path id="Combined-Shape" d="M53.274 11.772A22.365 22.365 0 0 1 69.3 18.507l-5.4 5.342a14.841 14.841 0 1 0-.129 20.845l5.41 5.329a22.434 22.434 0 1 1-15.91-38.251z" class="cls-1" transform="translate(-30.84 -11.772)"/>
            <path id="check" fill="#2db1ff" d="M44.713 30.445a1.957 1.957 0 0 1 0-2.766l2.766-2.765a1.955 1.955 0 0 1 2.766 0l8.563 8.563L79.363 14.24a1.381 1.381 0 0 1 2.2.441l2.656 5.893-24.027 22.584a1.955 1.955 0 0 1-2.766 0z" transform="translate(-31.025 -11.801)"/>
        </g>
        <path id="seraphin-contract-ma" d="M-1.513 61.43a.468.468 0 0 1-.113.129.253.253 0 0 1-.153.043.38.38 0 0 1-.177-.052l-.215-.116a1.8 1.8 0 0 0-.275-.117 1.1 1.1 0 0 0-.351-.051.756.756 0 0 0-.508.145.494.494 0 0 0-.168.393.361.361 0 0 0 .1.261.852.852 0 0 0 .264.179 2.728 2.728 0 0 0 .373.138c.14.042.283.089.429.14a4.079 4.079 0 0 1 .429.181 1.44 1.44 0 0 1 .374.266 1.247 1.247 0 0 1 .263.392 1.4 1.4 0 0 1 .1.558 1.816 1.816 0 0 1-.125.678 1.579 1.579 0 0 1-.365.551 1.688 1.688 0 0 1-.588.37 2.208 2.208 0 0 1-.8.134 2.545 2.545 0 0 1-.5-.05A3.039 3.039 0 0 1-4 65.463a2.863 2.863 0 0 1-.445-.218 1.883 1.883 0 0 1-.363-.28l.359-.567a.3.3 0 0 1 .111-.1.314.314 0 0 1 .155-.039.411.411 0 0 1 .217.068l.248.151a2.073 2.073 0 0 0 .318.151 1.2 1.2 0 0 0 .424.068.8.8 0 0 0 .513-.146.552.552 0 0 0 .183-.461.438.438 0 0 0-.1-.3.781.781 0 0 0-.264-.189 2.447 2.447 0 0 0-.371-.133c-.139-.038-.281-.081-.428-.127a3.249 3.249 0 0 1-.427-.173 1.343 1.343 0 0 1-.371-.269 1.259 1.259 0 0 1-.264-.416 1.656 1.656 0 0 1-.1-.616 1.459 1.459 0 0 1 .118-.574 1.488 1.488 0 0 1 .348-.5 1.726 1.726 0 0 1 .564-.35 2.09 2.09 0 0 1 .764-.131 2.806 2.806 0 0 1 .468.038 2.507 2.507 0 0 1 .433.11 2.414 2.414 0 0 1 .382.177 1.716 1.716 0 0 1 .319.232zm3.983-1.062v.932H.324v1.221h1.644v.9H.324v1.245H2.47v.934H-.9v-5.232zm1.543 3.295V65.6H2.8v-5.232h1.7a3.482 3.482 0 0 1 .967.116 1.828 1.828 0 0 1 .654.324 1.234 1.234 0 0 1 .368.492 1.622 1.622 0 0 1 .114.617 1.665 1.665 0 0 1-.068.481 1.452 1.452 0 0 1-.2.418A1.549 1.549 0 0 1 6 63.16a1.769 1.769 0 0 1-.451.248 1.113 1.113 0 0 1 .228.151.879.879 0 0 1 .185.219L7.079 65.6h-1.1a.467.467 0 0 1-.438-.23l-.869-1.519a.364.364 0 0 0-.134-.143.456.456 0 0 0-.218-.043zm0-.836H4.5a1.236 1.236 0 0 0 .422-.063.764.764 0 0 0 .286-.174.668.668 0 0 0 .161-.26 1 1 0 0 0 .05-.321.675.675 0 0 0-.219-.539 1.047 1.047 0 0 0-.7-.194h-.486zm8.07 2.773h-.941a.431.431 0 0 1-.259-.074.367.367 0 0 1-.142-.188l-.309-.911H8.443l-.309.911a.416.416 0 0 1-.394.262h-.947l2.024-5.229h1.242zm-3.36-2h1.429l-.481-1.433c-.032-.091-.068-.2-.109-.321s-.083-.256-.124-.4q-.056.219-.118.405c-.04.124-.079.232-.114.322zm4.638.25v1.75h-1.213v-5.232h1.845a3.058 3.058 0 0 1 .949.13 1.833 1.833 0 0 1 .654.361 1.424 1.424 0 0 1 .379.542 1.846 1.846 0 0 1 .122.674 1.982 1.982 0 0 1-.126.718 1.449 1.449 0 0 1-.384.56 1.8 1.8 0 0 1-.656.364 2.986 2.986 0 0 1-.938.131zm0-.915h.632a.889.889 0 0 0 .681-.226.9.9 0 0 0 .208-.632.952.952 0 0 0-.053-.326.673.673 0 0 0-.164-.253.741.741 0 0 0-.276-.163 1.217 1.217 0 0 0-.4-.058h-.632zm7.573 2.665h-1.22v-2.213h-2.125V65.6h-1.22v-5.232h1.221v2.185h2.125v-2.185h1.22zm1.831 0h-1.22v-5.232h1.221zm1.248-5.229a1.006 1.006 0 0 1 .133.007.347.347 0 0 1 .1.027.294.294 0 0 1 .083.056.906.906 0 0 1 .09.1L26.9 63.7c-.01-.1-.017-.2-.022-.293s-.007-.183-.007-.267v-2.772h1.07V65.6h-.632a.58.58 0 0 1-.237-.043.5.5 0 0 1-.187-.158l-2.465-3.118.018.267c.005.088.007.17.007.246v2.8h-1.069v-5.226zm8.971 3.876a.228.228 0 0 1 .169.072l.481.506a2 2 0 0 1-.792.622 2.767 2.767 0 0 1-1.125.21 2.682 2.682 0 0 1-1.068-.2 2.318 2.318 0 0 1-.8-.56 2.474 2.474 0 0 1-.5-.847 3.13 3.13 0 0 1-.176-1.065 2.807 2.807 0 0 1 .2-1.075 2.507 2.507 0 0 1 .562-.845 2.536 2.536 0 0 1 .863-.552 3 3 0 0 1 1.109-.2 2.846 2.846 0 0 1 .555.052 2.685 2.685 0 0 1 .486.144 2.311 2.311 0 0 1 .416.219 1.978 1.978 0 0 1 .337.281l-.409.549a.511.511 0 0 1-.093.092.245.245 0 0 1-.151.041.275.275 0 0 1-.122-.029 1.259 1.259 0 0 1-.122-.07l-.142-.09a1.084 1.084 0 0 0-.182-.09 1.5 1.5 0 0 0-.248-.07 1.724 1.724 0 0 0-.332-.029 1.521 1.521 0 0 0-.6.116 1.333 1.333 0 0 0-.468.334 1.549 1.549 0 0 0-.3.526 2.064 2.064 0 0 0-.109.692 2.156 2.156 0 0 0 .109.715 1.571 1.571 0 0 0 .3.526 1.276 1.276 0 0 0 .44.325 1.319 1.319 0 0 0 .538.11 2.563 2.563 0 0 0 .3-.016 1.282 1.282 0 0 0 .252-.055 1.232 1.232 0 0 0 .223-.1 1.456 1.456 0 0 0 .214-.157.435.435 0 0 1 .093-.059.256.256 0 0 1 .092-.025zm6.006-1.267a2.818 2.818 0 0 1-.2 1.056 2.5 2.5 0 0 1-1.407 1.414 3.13 3.13 0 0 1-2.224 0 2.551 2.551 0 0 1-.859-.566 2.507 2.507 0 0 1-.553-.848 2.951 2.951 0 0 1 0-2.111 2.5 2.5 0 0 1 .553-.847 2.559 2.559 0 0 1 .859-.563 2.914 2.914 0 0 1 1.113-.205 2.878 2.878 0 0 1 1.11.207 2.541 2.541 0 0 1 .856.565 2.513 2.513 0 0 1 .551.847 2.8 2.8 0 0 1 .201 1.051zm-1.242 0a2.26 2.26 0 0 0-.1-.7 1.48 1.48 0 0 0-.289-.526 1.25 1.25 0 0 0-.461-.33 1.6 1.6 0 0 0-.62-.114 1.619 1.619 0 0 0-.626.114 1.249 1.249 0 0 0-.463.33 1.5 1.5 0 0 0-.289.526 2.487 2.487 0 0 0 0 1.4 1.478 1.478 0 0 0 .289.526 1.212 1.212 0 0 0 .463.328 1.619 1.619 0 0 0 .626.113 1.6 1.6 0 0 0 .62-.113 1.213 1.213 0 0 0 .461-.328 1.463 1.463 0 0 0 .289-.526 2.273 2.273 0 0 0 .099-.7zm2.1-2.612a1.015 1.015 0 0 1 .133.007.356.356 0 0 1 .1.027.308.308 0 0 1 .083.056.906.906 0 0 1 .09.1l2.483 3.142c-.01-.1-.017-.2-.022-.293s-.007-.183-.007-.267v-2.772h1.069V65.6h-.631a.588.588 0 0 1-.238-.043.508.508 0 0 1-.186-.158l-2.466-3.115c.008.091.014.179.019.267s.007.17.007.246v2.8h-1.07v-5.229zm8.227 0v.961h-1.469V65.6h-1.213v-4.27h-1.472v-.961zm1.357 3.295V65.6h-1.21v-5.232h1.7a3.492 3.492 0 0 1 .967.116 1.823 1.823 0 0 1 .653.324 1.227 1.227 0 0 1 .369.492 1.641 1.641 0 0 1 .114.617 1.664 1.664 0 0 1-.068.481 1.455 1.455 0 0 1-.2.418 1.528 1.528 0 0 1-.33.342 1.763 1.763 0 0 1-.45.248 1.141 1.141 0 0 1 .228.151.876.876 0 0 1 .184.219L52.5 65.6h-1.1a.465.465 0 0 1-.438-.23l-.862-1.521a.366.366 0 0 0-.135-.143.449.449 0 0 0-.217-.043zm0-.836h.488a1.24 1.24 0 0 0 .422-.063.76.76 0 0 0 .285-.174.67.67 0 0 0 .162-.26 1 1 0 0 0 .05-.321.673.673 0 0 0-.225-.538 1.042 1.042 0 0 0-.694-.194h-.488zM57.5 65.6h-.941a.433.433 0 0 1-.26-.074.378.378 0 0 1-.142-.188l-.309-.911h-1.984l-.309.911a.409.409 0 0 1-.14.181.4.4 0 0 1-.255.081h-.948l2.024-5.229h1.242zm-3.36-2h1.428l-.48-1.433c-.032-.091-.068-.2-.109-.321s-.084-.256-.124-.4q-.058.219-.118.405t-.115.322zm6.722.646a.245.245 0 0 1 .087.016.226.226 0 0 1 .082.056l.481.506a1.994 1.994 0 0 1-.791.622 2.772 2.772 0 0 1-1.126.21 2.681 2.681 0 0 1-1.067-.2 2.308 2.308 0 0 1-.8-.56 2.476 2.476 0 0 1-.5-.847 3.13 3.13 0 0 1-.176-1.065 2.808 2.808 0 0 1 .2-1.075 2.477 2.477 0 0 1 1.425-1.4 3 3 0 0 1 1.109-.2 2.835 2.835 0 0 1 .554.052 2.684 2.684 0 0 1 .486.144 2.32 2.32 0 0 1 .417.219 2.056 2.056 0 0 1 .337.281l-.409.549a.517.517 0 0 1-.094.092.241.241 0 0 1-.151.041.278.278 0 0 1-.122-.029 1.251 1.251 0 0 1-.121-.07l-.142-.09a1.061 1.061 0 0 0-.183-.09 1.443 1.443 0 0 0-.248-.07 1.724 1.724 0 0 0-.332-.029 1.513 1.513 0 0 0-.6.116 1.315 1.315 0 0 0-.468.334 1.549 1.549 0 0 0-.3.526 2.039 2.039 0 0 0-.11.692 2.131 2.131 0 0 0 .11.715 1.554 1.554 0 0 0 .3.526 1.276 1.276 0 0 0 .44.325 1.312 1.312 0 0 0 .538.11 2.558 2.558 0 0 0 .3-.016 1.308 1.308 0 0 0 .253-.055 1.232 1.232 0 0 0 .223-.1 1.505 1.505 0 0 0 .213-.157.441.441 0 0 1 .094-.059.255.255 0 0 1 .096-.021zm4.642-3.876v.961h-1.468V65.6h-1.213v-4.27h-1.471v-.961zm3.844 2.839c.048.091.095.185.138.283s.087.2.128.3c.04-.106.084-.207.129-.307s.092-.2.14-.289l1.342-2.642a.434.434 0 0 1 .074-.106.243.243 0 0 1 .084-.055.384.384 0 0 1 .106-.022h1.064V65.6h-1.07v-3.01c0-.146.007-.3.022-.474L70.124 64.8a.461.461 0 0 1-.175.19.487.487 0 0 1-.249.064h-.165a.487.487 0 0 1-.249-.064.461.461 0 0 1-.175-.19l-1.392-2.692c.01.084.017.167.022.249s.007.158.007.228V65.6h-1.069v-5.232H67.738a.37.37 0 0 1 .106.022.247.247 0 0 1 .085.055.463.463 0 0 1 .073.106zm8.575 2.39h-.94a.433.433 0 0 1-.26-.074.378.378 0 0 1-.142-.188l-.309-.911h-1.985l-.309.911a.416.416 0 0 1-.394.262h-.948l2.024-5.229h1.24zm-3.36-2H76l-.481-1.433-.109-.321c-.042-.121-.083-.256-.123-.4-.038.146-.078.281-.119.405s-.079.232-.114.322zm4.064-3.23a1 1 0 0 1 .132.007.354.354 0 0 1 .1.027.289.289 0 0 1 .082.056.906.906 0 0 1 .09.1l2.486 3.141c-.009-.1-.017-.2-.022-.293s-.007-.183-.007-.267v-2.772h1.07V65.6h-.632a.586.586 0 0 1-.237-.043.493.493 0 0 1-.189-.157l-2.466-3.115.018.267c.005.088.008.17.008.246v2.8h-1.07v-5.23zm9.3 5.229h-.94a.433.433 0 0 1-.26-.074.378.378 0 0 1-.142-.188l-.309-.911h-1.988l-.309.911a.416.416 0 0 1-.394.262h-.948l2.024-5.229H85.9zm-3.36-2H86l-.481-1.433-.109-.321c-.042-.121-.083-.256-.123-.4q-.058.219-.118.405t-.115.322zm5.671 1.123a2.075 2.075 0 0 0 .446-.043 2.2 2.2 0 0 0 .366-.114v-.794h-.517a.248.248 0 0 1-.179-.061.2.2 0 0 1-.065-.154v-.668h1.86v2.207a2.668 2.668 0 0 1-.882.428 3.469 3.469 0 0 1-.524.1 5.389 5.389 0 0 1-.6.032 2.747 2.747 0 0 1-1.063-.2 2.546 2.546 0 0 1-1.405-1.407 2.761 2.761 0 0 1-.2-1.065 2.9 2.9 0 0 1 .193-1.075 2.42 2.42 0 0 1 .555-.845 2.509 2.509 0 0 1 .872-.552 3.141 3.141 0 0 1 1.143-.2 3.367 3.367 0 0 1 .614.054 3 3 0 0 1 .53.147 2.383 2.383 0 0 1 .443.223 2.318 2.318 0 0 1 .359.28l-.351.534a.392.392 0 0 1-.12.118.289.289 0 0 1-.153.043.418.418 0 0 1-.223-.072c-.1-.057-.185-.107-.27-.149a1.8 1.8 0 0 0-.26-.1 1.782 1.782 0 0 0-.28-.057 2.783 2.783 0 0 0-.33-.018 1.514 1.514 0 0 0-.614.12 1.317 1.317 0 0 0-.464.339 1.528 1.528 0 0 0-.3.526 2.105 2.105 0 0 0-.1.683 2.189 2.189 0 0 0 .115.74 1.583 1.583 0 0 0 .318.546 1.348 1.348 0 0 0 .481.339 1.569 1.569 0 0 0 .606.116zm5.662-4.353v.932h-2.151v1.221h1.645v.9h-1.645v1.245H95.9v.934h-3.371v-5.232zm3 2.839c.047.091.094.185.138.283s.087.2.127.3c.04-.106.084-.207.129-.307s.093-.2.14-.289l1.343-2.642a.464.464 0 0 1 .073-.106.247.247 0 0 1 .085-.055.37.37 0 0 1 .105-.022h1.064V65.6h-1.069v-3.01c0-.146.007-.3.021-.474L99.672 64.8a.453.453 0 0 1-.174.19.487.487 0 0 1-.249.064h-.166a.489.489 0 0 1-.249-.064.459.459 0 0 1-.174-.19l-1.392-2.692c.009.084.017.167.021.249s.008.158.008.228V65.6h-1.07v-5.232h1.064a.385.385 0 0 1 .106.022.243.243 0 0 1 .084.055.435.435 0 0 1 .074.106zm7.074-2.839v.932h-2.146v1.221h1.644v.9h-1.644v1.245h2.146v.934h-3.367v-5.232zm.969 0a1.025 1.025 0 0 1 .133.007.356.356 0 0 1 .1.027.308.308 0 0 1 .083.056 1.021 1.021 0 0 1 .09.1l2.484 3.141c-.01-.1-.017-.2-.022-.293s-.008-.183-.008-.267v-2.771h1.07V65.6h-.631a.588.588 0 0 1-.238-.043.508.508 0 0 1-.186-.158l-2.466-3.115c.008.091.014.179.019.267s.007.17.007.246v2.8h-1.07v-5.229zm8.227 0v.961h-1.47V65.6h-1.214v-4.27h-1.471v-.961z" class="cls-1" transform="translate(6.24 -12.446)"/>
    </g>
</svg>
