<svg width="126" height="56" viewBox="0 0 126 56" fill="none" xmlns="http://www.w3.org/2000/svg">
<path fill-rule="evenodd" clip-rule="evenodd" d="M16.9041 44.1C13.5438 44.1 10.3986 43.657 7.46855 42.771C4.53849 41.8849 2.04899 40.6163 0 38.9651L2.70466 33.2864C4.83561 34.8571 7.05874 36.015 9.3741 36.7601C11.6895 37.5051 14.2199 37.8777 16.9656 37.8777C19.9981 37.8777 22.3442 37.3541 24.0039 36.307C25.6635 35.2599 26.4934 33.7899 26.4934 31.897C26.4934 30.286 25.725 29.0476 24.1883 28.1817C22.6515 27.3158 20.121 26.5003 16.5968 25.7351C11.1055 24.5671 7.10999 23.0569 4.61022 21.2042C2.11044 19.3516 0.860574 16.6533 0.860574 13.1092C0.860574 10.5719 1.55722 8.31659 2.95054 6.34315C4.34385 4.36972 6.3211 2.81918 8.88235 1.69151C11.4436 0.56383 14.4043 0 17.7647 0C20.8382 0 23.758 0.453078 26.5241 1.35925C29.2902 2.26542 31.5544 3.52396 33.3165 5.13493L30.6733 10.8136C26.7802 7.75272 22.4774 6.22233 17.7647 6.22233C14.9371 6.22233 12.7037 6.79623 11.0645 7.94404C9.42532 9.09186 8.60574 10.6525 8.60574 12.6259C8.60574 14.3174 9.33312 15.6062 10.7879 16.4922C12.2427 17.3782 14.7322 18.2038 18.2565 18.969C21.9037 19.8148 24.8747 20.731 27.1695 21.7177C29.4644 22.7045 31.2265 23.9731 32.4559 25.5236C33.6853 27.0742 34.3 29.0174 34.3 31.3533C34.3 33.9308 33.6034 36.1761 32.21 38.0891C30.8167 40.0021 28.8087 41.4822 26.186 42.5293C23.5633 43.5764 20.4694 44.1 16.9041 44.1Z" fill="#584AFC"/>
<path fill-rule="evenodd" clip-rule="evenodd" d="M116.717 0.700195H122.858V43.5626H115.995V16.9542L104.617 43.5626H99.5L88.062 17.2552V43.5626H81.1992V7.7002L83.123 5.50708L89.9826 6.70904L102.089 34.2316L116.717 0.700195Z" fill="#584AFC"/>
<path fill-rule="evenodd" clip-rule="evenodd" d="M70.6305 12.2468L76.1029 6.82964C71.9736 2.61507 66.218 0 59.8516 0C47.2871 0 37.1016 10.1855 37.1016 22.75C37.1016 35.3145 47.2871 45.5 59.8516 45.5C66.1575 45.5 71.8643 42.9344 75.9848 38.79L70.4988 33.3866C67.7749 36.1132 64.0102 37.8 59.8516 37.8C51.5397 37.8 44.8016 31.0618 44.8016 22.75C44.8016 14.4381 51.5397 7.69995 59.8516 7.69995C64.0777 7.69995 67.8969 9.44182 70.6305 12.2468Z" fill="#584AFC"/>
<path d="M50.9793 18.9072C50.2048 18.1327 50.2048 16.877 50.9793 16.1024L53.7841 13.2975C54.5586 12.5229 55.8145 12.5229 56.589 13.2975L65.2734 21.9819L86.1169 2.47308C86.8176 1.81722 87.9555 2.04493 88.3499 2.91995L91.0434 8.896L66.6759 31.799C65.9013 32.5735 64.6455 32.5735 63.871 31.7989L50.9793 18.9072Z" fill="#83FEB3"/>
<path fill-rule="evenodd" clip-rule="evenodd" d="M4.79074 49.6738C4.75434 49.732 4.71612 49.7757 4.67608 49.8048C4.63604 49.8339 4.58447 49.8485 4.52138 49.8485C4.46557 49.8485 4.40551 49.8309 4.3412 49.7957C4.27689 49.7605 4.20409 49.7211 4.1228 49.6774C4.04151 49.6337 3.94869 49.5943 3.84434 49.5591C3.73999 49.5239 3.62109 49.5063 3.48762 49.5063C3.25708 49.5063 3.0854 49.5555 2.97256 49.6537C2.85972 49.752 2.8033 49.8849 2.8033 50.0523C2.8033 50.1591 2.83727 50.2477 2.90522 50.318C2.97317 50.3884 3.06234 50.4491 3.17276 50.5C3.28317 50.551 3.40936 50.5977 3.55132 50.6402C3.69328 50.6827 3.83827 50.73 3.9863 50.7821C4.13433 50.8343 4.27932 50.8956 4.42128 50.966C4.56324 51.0363 4.68942 51.1261 4.79984 51.2353C4.91025 51.3445 4.99943 51.4774 5.06738 51.6339C5.13533 51.7904 5.1693 51.9791 5.1693 52.1999C5.1693 52.445 5.12683 52.6743 5.0419 52.8879C4.95697 53.1014 4.83381 53.2877 4.67244 53.4466C4.51106 53.6056 4.31208 53.7305 4.07548 53.8215C3.83888 53.9125 3.57013 53.958 3.26922 53.958C3.1042 53.958 2.93616 53.9411 2.76508 53.9071C2.594 53.8731 2.42838 53.8252 2.26822 53.7633C2.10806 53.7014 1.95761 53.628 1.81686 53.5431C1.67611 53.4582 1.55357 53.3635 1.44922 53.2592L1.81322 52.684C1.83991 52.6404 1.87753 52.6052 1.92606 52.5785C1.97459 52.5518 2.02677 52.5384 2.08258 52.5384C2.15538 52.5384 2.22879 52.5615 2.3028 52.6076C2.37681 52.6537 2.46053 52.7047 2.55396 52.7605C2.64739 52.8163 2.75476 52.8673 2.8761 52.9134C2.99743 52.9595 3.1406 52.9825 3.30562 52.9825C3.52887 52.9825 3.70238 52.9334 3.82614 52.8351C3.9499 52.7368 4.01178 52.5809 4.01178 52.3674C4.01178 52.2436 3.97781 52.1429 3.90986 52.0652C3.84191 51.9876 3.75273 51.9233 3.64232 51.8723C3.5319 51.8214 3.40633 51.7765 3.26558 51.7376C3.12483 51.6988 2.98045 51.6557 2.83242 51.6084C2.68439 51.5611 2.54001 51.5029 2.39926 51.4337C2.25851 51.3645 2.13293 51.2735 2.02252 51.1607C1.9121 51.0479 1.82293 50.9071 1.75498 50.7385C1.68703 50.5698 1.65306 50.3617 1.65306 50.1142C1.65306 49.9152 1.6931 49.7211 1.77318 49.5318C1.85326 49.3425 1.97095 49.1739 2.12626 49.0258C2.28157 48.8778 2.47206 48.7595 2.69774 48.6709C2.92342 48.5824 3.18186 48.5381 3.47306 48.5381C3.63565 48.5381 3.79398 48.5508 3.94808 48.5763C4.10217 48.6018 4.24838 48.6394 4.3867 48.6891C4.52502 48.7389 4.65424 48.7983 4.77436 48.8675C4.89448 48.9367 5.00186 49.0149 5.0965 49.1023L4.79074 49.6738ZM8.83114 48.5963V49.5427H6.65442V50.7803H8.32154V51.6903H6.65442V52.9534H8.83114V53.8998H5.41682V48.5963H8.83114ZM10.3963 51.9378V53.8998H9.16602V48.5963H10.8914C11.2748 48.5963 11.6018 48.6358 11.8724 48.7146C12.1429 48.7935 12.3638 48.9033 12.5348 49.044C12.7059 49.1848 12.8303 49.351 12.9079 49.5427C12.9856 49.7344 13.0244 49.9431 13.0244 50.1688C13.0244 50.3411 13.0014 50.5037 12.9553 50.6566C12.9092 50.8094 12.8406 50.9508 12.7496 51.0806C12.6586 51.2105 12.547 51.3263 12.4147 51.4282C12.2825 51.5302 12.1302 51.6139 11.9579 51.6794C12.0404 51.7207 12.1175 51.7716 12.189 51.8323C12.2606 51.893 12.3231 51.967 12.3765 52.0543L13.5049 53.8998H12.3911C12.1848 53.8998 12.0368 53.8222 11.947 53.6668L11.0661 52.1271C11.0273 52.0592 10.9818 52.0106 10.9296 51.9815C10.8774 51.9524 10.804 51.9378 10.7094 51.9378H10.3963ZM10.3963 51.0897H10.8914C11.0588 51.0897 11.2014 51.0685 11.3191 51.026C11.4368 50.9836 11.5332 50.9247 11.6085 50.8495C11.6837 50.7743 11.7383 50.6863 11.7723 50.5856C11.8062 50.4849 11.8232 50.3763 11.8232 50.2598C11.8232 50.0268 11.7474 49.8448 11.5957 49.7138C11.4441 49.5828 11.2093 49.5172 10.8914 49.5172H10.3963V51.0897ZM18.5791 53.8998H17.6254C17.5186 53.8998 17.4306 53.8749 17.3615 53.8252C17.2923 53.7754 17.2444 53.7117 17.2177 53.6341L16.9047 52.7095H14.8881L14.5751 53.6341C14.5508 53.702 14.5035 53.7633 14.4331 53.8179C14.3627 53.8725 14.2766 53.8998 14.1747 53.8998H13.2137L15.2667 48.5963H16.5261L18.5791 53.8998ZM15.172 51.8723H16.6207L16.133 50.42C16.1014 50.3278 16.0644 50.2192 16.022 50.0942C15.9795 49.9692 15.9376 49.8339 15.8964 49.6883C15.8576 49.8364 15.8175 49.9735 15.7763 50.0996C15.735 50.2258 15.6962 50.335 15.6598 50.4272L15.172 51.8723ZM19.8749 52.1271V53.8998H18.6446V48.5963H20.5155C20.8892 48.5963 21.2102 48.6406 21.4783 48.7292C21.7465 48.8178 21.9673 48.9397 22.1408 49.095C22.3143 49.2503 22.4423 49.4335 22.5248 49.6446C22.6073 49.8558 22.6486 50.0839 22.6486 50.329C22.6486 50.5935 22.6061 50.8361 22.5212 51.057C22.4362 51.2778 22.3064 51.4671 22.1317 51.6248C21.957 51.7825 21.7355 51.9057 21.4674 51.9943C21.1993 52.0828 20.882 52.1271 20.5155 52.1271H19.8749ZM19.8749 51.1989H20.5155C20.8359 51.1989 21.0664 51.1225 21.2071 50.9696C21.3479 50.8167 21.4183 50.6032 21.4183 50.329C21.4183 50.2076 21.4001 50.0972 21.3637 49.9977C21.3273 49.8982 21.2721 49.8127 21.198 49.7411C21.124 49.6695 21.0306 49.6143 20.9178 49.5755C20.8049 49.5367 20.6708 49.5172 20.5155 49.5172H19.8749V51.1989ZM27.5553 53.8998H26.3177V51.6576H24.1628V53.8998H22.9252V48.5963H24.1628V50.8131H26.3177V48.5963H27.5553V53.8998ZM29.4117 53.8998H28.1741V48.5963H29.4117V53.8998ZM30.6784 48.5963C30.7318 48.5963 30.7767 48.5988 30.8131 48.6036C30.8495 48.6085 30.8823 48.6176 30.9114 48.6309C30.9405 48.6443 30.9684 48.6631 30.9951 48.6873C31.0218 48.7116 31.0521 48.7444 31.0861 48.7856L33.605 51.9706C33.5953 51.8687 33.588 51.7698 33.5831 51.6739C33.5783 51.5781 33.5759 51.4877 33.5759 51.4028V48.5963H34.6606V53.8998H34.0199C33.9253 53.8998 33.8452 53.8852 33.7797 53.8561C33.7142 53.827 33.6511 53.7736 33.5904 53.696L31.0897 50.5364C31.097 50.6287 31.1031 50.7191 31.1079 50.8076C31.1128 50.8962 31.1152 50.9793 31.1152 51.057V53.8998H30.0305V48.5963H30.6784ZM39.7748 52.5275C39.8039 52.5275 39.833 52.533 39.8621 52.5439C39.8913 52.5548 39.9192 52.5736 39.9459 52.6003L40.4336 53.1136C40.2201 53.3926 39.9525 53.6031 39.631 53.7451C39.3095 53.8871 38.9291 53.958 38.4899 53.958C38.087 53.958 37.7261 53.8895 37.407 53.7524C37.0879 53.6153 36.8173 53.426 36.5952 53.1845C36.3732 52.9431 36.2027 52.6567 36.0838 52.3255C35.9649 51.9943 35.9055 51.6345 35.9055 51.2462C35.9055 50.8507 35.9734 50.4873 36.1093 50.1561C36.2452 49.8248 36.4351 49.5391 36.679 49.2988C36.9228 49.0586 37.2146 48.8718 37.5544 48.7383C37.8941 48.6048 38.269 48.5381 38.6791 48.5381C38.8781 48.5381 39.0656 48.5557 39.2415 48.5909C39.4175 48.6261 39.5819 48.6746 39.7347 48.7365C39.8876 48.7983 40.0284 48.8724 40.157 48.9585C40.2856 49.0447 40.3996 49.1399 40.4991 49.2442L40.0842 49.8012C40.0575 49.8351 40.0259 49.8661 39.9895 49.894C39.9531 49.9219 39.9022 49.9358 39.8367 49.9358C39.793 49.9358 39.7517 49.9261 39.7129 49.9067C39.6741 49.8873 39.6328 49.8637 39.5891 49.8357C39.5455 49.8078 39.4975 49.7775 39.4454 49.7447C39.3932 49.712 39.3313 49.6817 39.2597 49.6537C39.1881 49.6258 39.1044 49.6022 39.0086 49.5828C38.9127 49.5634 38.8005 49.5536 38.6719 49.5536C38.4486 49.5536 38.2448 49.5931 38.0603 49.6719C37.8759 49.7508 37.7176 49.8637 37.5853 50.0105C37.4531 50.1573 37.3499 50.335 37.2759 50.5437C37.2019 50.7524 37.1649 50.9866 37.1649 51.2462C37.1649 51.518 37.2019 51.7595 37.2759 51.9706C37.3499 52.1817 37.4506 52.3595 37.578 52.5039C37.7054 52.6483 37.8541 52.7581 38.0239 52.8333C38.1938 52.9085 38.3758 52.9461 38.5699 52.9461C38.6816 52.9461 38.7835 52.9407 38.8757 52.9297C38.9679 52.9188 39.0535 52.9 39.1323 52.8733C39.2112 52.8466 39.2864 52.8121 39.358 52.7696C39.4296 52.7271 39.5018 52.6743 39.5746 52.6112C39.6037 52.587 39.6352 52.567 39.6692 52.5512C39.7032 52.5354 39.7384 52.5275 39.7748 52.5275ZM45.8645 51.2462C45.8645 51.6297 45.7984 51.9864 45.6661 52.3164C45.5339 52.6464 45.3476 52.9334 45.1074 53.1773C44.8671 53.4211 44.5778 53.6122 44.2392 53.7506C43.9007 53.8889 43.5252 53.958 43.1127 53.958C42.7001 53.958 42.324 53.8889 41.9843 53.7506C41.6445 53.6122 41.3539 53.4211 41.1125 53.1773C40.871 52.9334 40.6842 52.6464 40.5519 52.3164C40.4197 51.9864 40.3535 51.6297 40.3535 51.2462C40.3535 50.8628 40.4197 50.5061 40.5519 50.1761C40.6842 49.8461 40.871 49.5597 41.1125 49.317C41.3539 49.0744 41.6445 48.8839 41.9843 48.7456C42.324 48.6072 42.7001 48.5381 43.1127 48.5381C43.5252 48.5381 43.9007 48.6079 44.2392 48.7474C44.5778 48.8869 44.8671 49.078 45.1074 49.3207C45.3476 49.5634 45.5339 49.8497 45.6661 50.1797C45.7984 50.5098 45.8645 50.8653 45.8645 51.2462ZM44.6051 51.2462C44.6051 50.9842 44.5711 50.7482 44.5031 50.5383C44.4352 50.3284 44.3375 50.1506 44.2101 50.005C44.0827 49.8594 43.9268 49.7478 43.7424 49.6701C43.558 49.5925 43.348 49.5536 43.1127 49.5536C42.8748 49.5536 42.6631 49.5925 42.4775 49.6701C42.2918 49.7478 42.1353 49.8594 42.0079 50.005C41.8805 50.1506 41.7828 50.3284 41.7149 50.5383C41.647 50.7482 41.613 50.9842 41.613 51.2462C41.613 51.5108 41.647 51.748 41.7149 51.9579C41.7828 52.1678 41.8805 52.3455 42.0079 52.4911C42.1353 52.6367 42.2918 52.7477 42.4775 52.8242C42.6631 52.9006 42.8748 52.9388 43.1127 52.9388C43.348 52.9388 43.558 52.9006 43.7424 52.8242C43.9268 52.7477 44.0827 52.6367 44.2101 52.4911C44.3375 52.3455 44.4352 52.1678 44.5031 51.9579C44.5711 51.748 44.6051 51.5108 44.6051 51.2462ZM46.7381 48.5963C46.7915 48.5963 46.8364 48.5988 46.8728 48.6036C46.9092 48.6085 46.9419 48.6176 46.9711 48.6309C47.0002 48.6443 47.0281 48.6631 47.0548 48.6873C47.0815 48.7116 47.1118 48.7444 47.1458 48.7856L49.6647 51.9706C49.655 51.8687 49.6477 51.7698 49.6428 51.6739C49.638 51.5781 49.6355 51.4877 49.6355 51.4028V48.5963H50.7203V53.8998H50.0796C49.985 53.8998 49.9049 53.8852 49.8394 53.8561C49.7739 53.827 49.7108 53.7736 49.6501 53.696L47.1494 50.5364C47.1567 50.6287 47.1628 50.7191 47.1676 50.8076C47.1725 50.8962 47.1749 50.9793 47.1749 51.057V53.8998H46.0902V48.5963H46.7381ZM55.081 48.5963V49.5718H53.5886V53.8998H52.3583V49.5718H50.8659V48.5963H55.081ZM56.4569 51.9378V53.8998H55.2266V48.5963H56.9519C57.3354 48.5963 57.6623 48.6358 57.9329 48.7146C58.2035 48.7935 58.4243 48.9033 58.5954 49.044C58.7665 49.1848 58.8908 49.351 58.9685 49.5427C59.0462 49.7344 59.085 49.9431 59.085 50.1688C59.085 50.3411 59.0619 50.5037 59.0158 50.6566C58.9697 50.8094 58.9012 50.9508 58.8102 51.0806C58.7192 51.2105 58.6075 51.3263 58.4753 51.4282C58.343 51.5302 58.1908 51.6139 58.0185 51.6794C58.101 51.7207 58.178 51.7716 58.2496 51.8323C58.3212 51.893 58.3837 51.967 58.4371 52.0543L59.5655 53.8998H58.4516C58.2454 53.8998 58.0973 53.8222 58.0075 53.6668L57.1267 52.1271C57.0878 52.0592 57.0423 52.0106 56.9902 51.9815C56.938 51.9524 56.8646 51.9378 56.7699 51.9378H56.4569ZM56.4569 51.0897H56.9519C57.1194 51.0897 57.2619 51.0685 57.3796 51.026C57.4973 50.9836 57.5938 50.9247 57.669 50.8495C57.7442 50.7743 57.7988 50.6863 57.8328 50.5856C57.8668 50.4849 57.8838 50.3763 57.8838 50.2598C57.8838 50.0268 57.8079 49.8448 57.6563 49.7138C57.5046 49.5828 57.2698 49.5172 56.9519 49.5172H56.4569V51.0897ZM64.6396 53.8998H63.6859C63.5792 53.8998 63.4912 53.8749 63.422 53.8252C63.3529 53.7754 63.305 53.7117 63.2783 53.6341L62.9652 52.7095H60.9487L60.6356 53.6341C60.6114 53.702 60.564 53.7633 60.4937 53.8179C60.4233 53.8725 60.3371 53.8998 60.2352 53.8998H59.2743L61.3272 48.5963H62.5867L64.6396 53.8998ZM61.2326 51.8723H62.6813L62.1935 50.42C62.162 50.3278 62.125 50.2192 62.0825 50.0942C62.0401 49.9692 61.9982 49.8339 61.9569 49.6883C61.9181 49.8364 61.8781 49.9735 61.8368 50.0996C61.7956 50.2258 61.7567 50.335 61.7203 50.4272L61.2326 51.8723ZM68.0503 52.5275C68.0794 52.5275 68.1085 52.533 68.1377 52.5439C68.1668 52.5548 68.1947 52.5736 68.2214 52.6003L68.7091 53.1136C68.4956 53.3926 68.2281 53.6031 67.9065 53.7451C67.585 53.8871 67.2046 53.958 66.7654 53.958C66.3625 53.958 66.0016 53.8895 65.6825 53.7524C65.3634 53.6153 65.0928 53.426 64.8708 53.1845C64.6487 52.9431 64.4782 52.6567 64.3593 52.3255C64.2404 51.9943 64.181 51.6345 64.181 51.2462C64.181 50.8507 64.2489 50.4873 64.3848 50.1561C64.5207 49.8248 64.7106 49.5391 64.9545 49.2988C65.1984 49.0586 65.4902 48.8718 65.8299 48.7383C66.1696 48.6048 66.5446 48.5381 66.9547 48.5381C67.1536 48.5381 67.3411 48.5557 67.517 48.5909C67.693 48.6261 67.8574 48.6746 68.0103 48.7365C68.1631 48.7983 68.3039 48.8724 68.4325 48.9585C68.5611 49.0447 68.6752 49.1399 68.7747 49.2442L68.3597 49.8012C68.333 49.8351 68.3015 49.8661 68.2651 49.894C68.2287 49.9219 68.1777 49.9358 68.1122 49.9358C68.0685 49.9358 68.0272 49.9261 67.9884 49.9067C67.9496 49.8873 67.9083 49.8637 67.8647 49.8357C67.821 49.8078 67.7731 49.7775 67.7209 49.7447C67.6687 49.712 67.6068 49.6817 67.5352 49.6537C67.4637 49.6258 67.3799 49.6022 67.2841 49.5828C67.1882 49.5634 67.076 49.5536 66.9474 49.5536C66.7241 49.5536 66.5203 49.5931 66.3359 49.6719C66.1514 49.7508 65.9931 49.8637 65.8608 50.0105C65.7286 50.1573 65.6255 50.335 65.5514 50.5437C65.4774 50.7524 65.4404 50.9866 65.4404 51.2462C65.4404 51.518 65.4774 51.7595 65.5514 51.9706C65.6255 52.1817 65.7262 52.3595 65.8536 52.5039C65.981 52.6483 66.1296 52.7581 66.2995 52.8333C66.4693 52.9085 66.6513 52.9461 66.8455 52.9461C66.9571 52.9461 67.059 52.9407 67.1512 52.9297C67.2434 52.9188 67.329 52.9 67.4078 52.8733C67.4867 52.8466 67.5619 52.8121 67.6335 52.7696C67.7051 52.7271 67.7773 52.6743 67.8501 52.6112C67.8792 52.587 67.9108 52.567 67.9447 52.5512C67.9787 52.5354 68.0139 52.5275 68.0503 52.5275ZM72.7568 48.5963V49.5718H71.2644V53.8998H70.0341V49.5718H68.5417V48.5963H72.7568ZM76.6553 51.4756C76.7038 51.5678 76.7505 51.6636 76.7954 51.7631C76.8403 51.8626 76.8834 51.9645 76.9246 52.0689C76.9659 51.9621 77.0096 51.8584 77.0557 51.7577C77.1018 51.657 77.1491 51.5593 77.1976 51.4646L78.559 48.7856C78.5832 48.7395 78.6081 48.7037 78.6336 48.6782C78.6591 48.6527 78.6876 48.6339 78.7191 48.6218C78.7507 48.6097 78.7865 48.6024 78.8265 48.6C78.8666 48.5975 78.9133 48.5963 78.9667 48.5963H79.9058V53.8998H78.8211V50.8495C78.8211 50.7015 78.8283 50.5413 78.8429 50.369L77.4379 53.0954C77.3942 53.1803 77.3353 53.2446 77.2613 53.2883C77.1873 53.332 77.103 53.3538 77.0083 53.3538H76.8409C76.7463 53.3538 76.6619 53.332 76.5879 53.2883C76.5139 53.2446 76.4551 53.1803 76.4114 53.0954L74.9991 50.3654C75.0088 50.4503 75.016 50.5346 75.0209 50.6183C75.0257 50.7021 75.0282 50.7791 75.0282 50.8495V53.8998H73.9435V48.5963H74.8826C74.936 48.5963 74.9827 48.5975 75.0227 48.6C75.0628 48.6024 75.0985 48.6097 75.1301 48.6218C75.1616 48.6339 75.1902 48.6527 75.2156 48.6782C75.2411 48.7037 75.266 48.7395 75.2903 48.7856L76.6553 51.4756ZM85.3512 53.8998H84.3975C84.2908 53.8998 84.2028 53.8749 84.1336 53.8252C84.0645 53.7754 84.0166 53.7117 83.9899 53.6341L83.6768 52.7095H81.6603L81.3472 53.6341C81.323 53.702 81.2756 53.7633 81.2053 53.8179C81.1349 53.8725 81.0487 53.8998 80.9468 53.8998H79.9859L82.0388 48.5963H83.2983L85.3512 53.8998ZM81.9442 51.8723H83.3929L82.9051 50.42C82.8736 50.3278 82.8366 50.2192 82.7941 50.0942C82.7517 49.9692 82.7098 49.8339 82.6685 49.6883C82.6297 49.8364 82.5897 49.9735 82.5484 50.0996C82.5072 50.2258 82.4683 50.335 82.4319 50.4272L81.9442 51.8723ZM86.0647 48.5963C86.118 48.5963 86.1629 48.5988 86.1993 48.6036C86.2357 48.6085 86.2685 48.6176 86.2976 48.6309C86.3267 48.6443 86.3546 48.6631 86.3813 48.6873C86.408 48.7116 86.4384 48.7444 86.4723 48.7856L88.9912 51.9706C88.9815 51.8687 88.9742 51.7698 88.9694 51.6739C88.9645 51.5781 88.9621 51.4877 88.9621 51.4028V48.5963H90.0468V53.8998H89.4062C89.3115 53.8998 89.2315 53.8852 89.1659 53.8561C89.1004 53.827 89.0373 53.7736 88.9767 53.696L86.476 50.5364C86.4833 50.6287 86.4893 50.7191 86.4942 50.8076C86.499 50.8962 86.5015 50.9793 86.5015 51.057V53.8998H85.4167V48.5963H86.0647ZM95.4923 53.8998H94.5386C94.4318 53.8998 94.3438 53.8749 94.2747 53.8252C94.2055 53.7754 94.1576 53.7117 94.1309 53.6341L93.8179 52.7095H91.8013L91.4883 53.6341C91.464 53.702 91.4167 53.7633 91.3463 53.8179C91.2759 53.8725 91.1898 53.8998 91.0879 53.8998H90.1269L92.1799 48.5963H93.4393L95.4923 53.8998ZM92.0852 51.8723H93.5339L93.0462 50.42C93.0146 50.3278 92.9776 50.2192 92.9352 50.0942C92.8927 49.9692 92.8508 49.8339 92.8096 49.6883C92.7708 49.8364 92.7307 49.9735 92.6895 50.0996C92.6482 50.2258 92.6094 50.335 92.573 50.4272L92.0852 51.8723ZM97.8364 53.0116C98.0063 53.0116 98.1567 52.9971 98.2878 52.968C98.4188 52.9388 98.5426 52.9 98.6591 52.8515V52.047H98.1349C98.0573 52.047 97.9966 52.0264 97.9529 51.9852C97.9092 51.9439 97.8874 51.8917 97.8874 51.8286V51.1516H99.7729V53.3902C99.637 53.4897 99.4957 53.5752 99.3488 53.6468C99.202 53.7184 99.0455 53.7773 98.8793 53.8234C98.7131 53.8695 98.5359 53.9034 98.3478 53.9253C98.1598 53.9471 97.9578 53.958 97.7418 53.958C97.3535 53.958 96.9944 53.8895 96.6643 53.7524C96.3343 53.6153 96.0486 53.426 95.8071 53.1845C95.5657 52.9431 95.3764 52.6567 95.2393 52.3255C95.1022 51.9943 95.0336 51.6345 95.0336 51.2462C95.0336 50.8507 95.0991 50.4873 95.2302 50.1561C95.3612 49.8248 95.5487 49.5391 95.7926 49.2988C96.0364 49.0586 96.3313 48.8718 96.6771 48.7383C97.0229 48.6048 97.4093 48.5381 97.8364 48.5381C98.0573 48.5381 98.2647 48.5563 98.4589 48.5927C98.653 48.6291 98.832 48.6788 98.9958 48.7419C99.1596 48.805 99.3094 48.8802 99.4453 48.9676C99.5812 49.055 99.7025 49.1496 99.8093 49.2515L99.4526 49.7939C99.4186 49.8448 99.378 49.8849 99.3306 49.914C99.2833 49.9431 99.2318 49.9577 99.1759 49.9577C99.1031 49.9577 99.0279 49.9334 98.9503 49.8849C98.8532 49.8266 98.7616 49.7763 98.6754 49.7338C98.5893 49.6914 98.5013 49.6568 98.4115 49.6301C98.3218 49.6034 98.2271 49.584 98.1276 49.5718C98.0281 49.5597 97.9165 49.5536 97.7927 49.5536C97.5622 49.5536 97.3547 49.5943 97.1703 49.6756C96.9859 49.7569 96.8288 49.8715 96.6989 50.0196C96.5691 50.1676 96.469 50.3453 96.3986 50.5528C96.3282 50.7603 96.2931 50.9914 96.2931 51.2462C96.2931 51.5277 96.3319 51.7777 96.4095 51.9961C96.4872 52.2145 96.5946 52.3989 96.7317 52.5494C96.8688 52.6998 97.0314 52.8145 97.2194 52.8933C97.4075 52.9722 97.6132 53.0116 97.8364 53.0116ZM103.573 48.5963V49.5427H101.396V50.7803H103.063V51.6903H101.396V52.9534H103.573V53.8998H100.159V48.5963H103.573ZM106.62 51.4756C106.668 51.5678 106.715 51.6636 106.76 51.7631C106.805 51.8626 106.848 51.9645 106.889 52.0689C106.93 51.9621 106.974 51.8584 107.02 51.7577C107.066 51.657 107.114 51.5593 107.162 51.4646L108.523 48.7856C108.548 48.7395 108.573 48.7037 108.598 48.6782C108.624 48.6527 108.652 48.6339 108.684 48.6218C108.715 48.6097 108.751 48.6024 108.791 48.6C108.831 48.5975 108.878 48.5963 108.931 48.5963H109.87V53.8998H108.786V50.8495C108.786 50.7015 108.793 50.5413 108.807 50.369L107.402 53.0954C107.359 53.1803 107.3 53.2446 107.226 53.2883C107.152 53.332 107.067 53.3538 106.973 53.3538H106.805C106.711 53.3538 106.626 53.332 106.552 53.2883C106.478 53.2446 106.42 53.1803 106.376 53.0954L104.964 50.3654C104.973 50.4503 104.981 50.5346 104.985 50.6183C104.99 50.7021 104.993 50.7791 104.993 50.8495V53.8998H103.908V48.5963H104.847C104.9 48.5963 104.947 48.5975 104.987 48.6C105.027 48.6024 105.063 48.6097 105.095 48.6218C105.126 48.6339 105.155 48.6527 105.18 48.6782C105.206 48.7037 105.23 48.7395 105.255 48.7856L106.62 51.4756ZM113.794 48.5963V49.5427H111.617V50.7803H113.285V51.6903H111.617V52.9534H113.794V53.8998H110.38V48.5963H113.794ZM114.777 48.5963C114.83 48.5963 114.875 48.5988 114.912 48.6036C114.948 48.6085 114.981 48.6176 115.01 48.6309C115.039 48.6443 115.067 48.6631 115.094 48.6873C115.12 48.7116 115.151 48.7444 115.185 48.7856L117.704 51.9706C117.694 51.8687 117.687 51.7698 117.682 51.6739C117.677 51.5781 117.674 51.4877 117.674 51.4028V48.5963H118.759V53.8998H118.118C118.024 53.8998 117.944 53.8852 117.878 53.8561C117.813 53.827 117.75 53.7736 117.689 53.696L115.188 50.5364C115.196 50.6287 115.202 50.7191 115.206 50.8076C115.211 50.8962 115.214 50.9793 115.214 51.057V53.8998H114.129V48.5963H114.777ZM123.12 48.5963V49.5718H121.627V53.8998H120.397V49.5718H118.905V48.5963H123.12Z" fill="#584AFC"/>
</svg>
