<?xml version="1.0" encoding="utf-8"?>
<!-- Generator: Adobe Illustrator 23.0.0, SVG Export Plug-In . SVG Version: 6.00 Build 0)  -->
<svg version="1.1" id="Capa_1" xmlns="http://www.w3.org/2000/svg" xmlns:xlink="http://www.w3.org/1999/xlink" x="0px" y="0px"
	 viewBox="0 0 512 512" style="enable-background:new 0 0 512 512;" xml:space="preserve">
<style type="text/css">
	.st0{fill:#CE498A;}
</style>
<path class="st0" d="M111.2,278.1c71,0,128.7,57.8,128.7,128.7c0,8.9,7.2,16.1,16.1,16.1c8.9,0,16.1-7.2,16.1-16.1
	c0-71,57.8-128.7,128.7-128.7c8.9,0,16.1-7.2,16.1-16.1s-7.2-16.1-16.1-16.1c-71,0-128.7-57.8-128.7-128.7c0-8.9-7.2-16.1-16.1-16.1
	s-16.1,7.2-16.1,16.1c0,71-57.8,128.7-128.7,128.7c-8.9,0-16.1,7.2-16.1,16.1C95.1,270.9,102.3,278.1,111.2,278.1z"/>
</svg>
